<svg xmlns="http://www.w3.org/2000/svg" viewBox="0 0 479.79 437.03"><g data-name="Layer 2"><path fill="#2c8c35" d="M367.09 103c0 14.53-10.59 23.37-18.31 29.86-2.93 2.46-8.38 6.94-8.36 8.62a11.72 11.72 0 0 1-11.8 11.81h-.1a11.74 11.74 0 0 1-11.89-11.62c-.11-12.88 9.29-20.6 16.85-26.94 5.93-5 9.81-8.48 9.81-11.69a11.77 11.77 0 0 0-23.53 0 11.9 11.9 0 1 1-23.8 0 35.57 35.57 0 0 1 71.13 0zm-38.24 61.3a11.68 11.68 0 0 0-11.63 11.9v.09a11.63 11.63 0 0 0 11.63 11.85 11.92 11.92 0 0 0 0-23.84zM89.07 247.16a11.9 11.9 0 0 0 0 23.8h1a11.9 11.9 0 0 0 0-23.8zm41.35 0a11.9 11.9 0 0 0 0 23.8h1a11.9 11.9 0 0 0 0-23.8zm349.37-190v133.9a57.19 57.19 0 0 1-57.12 57.43H268.4c-3 0-5.5 0-7.58-.06s-4.63-.07-5.58 0c-1 .66-3.44 2.9-5.79 5.06-.93.86-2 1.8-3.12 2.84l-43.65 39.78a12.17 12.17 0 0 1-20.28-8.78V161.25H57.79a34.09 34.09 0 0 0-34 33.82V329c0 18.58 15.41 33.2 34 33.2h172.32a11.94 11.94 0 0 1 7.93 3.36l35.56 32.74V285.24a11.9 11.9 0 0 1 23.79 0v140a11.74 11.74 0 0 1-7 10.82 11.39 11.39 0 0 1-4.71.94 12 12 0 0 1-8-3.23L225.49 386H57.79C26.08 386 0 360.66 0 329V195.07c0-31.71 26.08-57.61 57.79-57.61H182.4V57.17c0-31.71 26.28-57.17 58-57.17h182.27a57 57 0 0 1 57.12 57.17zm-23.79 0a33.15 33.15 0 0 0-33.33-33.38H240.39c-18.59 0-34.2 14.79-34.2 33.38v203.25l23.92-21.62c1.11-1 2.35-1.93 3.25-2.77 10.92-10.06 13.72-11.67 28-11.38 1.95 0 4.26.06 7.08.06h154.23A33.38 33.38 0 0 0 456 191.06V57.17z" data-name="Camada 1"/></g></svg>
